<?xml version="1.0" standalone="no"?>
<!DOCTYPE svg PUBLIC "-//W3C//DTD SVG 20010904//EN"
 "http://www.w3.org/TR/2001/REC-SVG-20010904/DTD/svg10.dtd">
<svg version="1.0" xmlns="http://www.w3.org/2000/svg"
 width="400.000000pt" height="84.000000pt" viewBox="0 0 400.000000 84.000000"
 preserveAspectRatio="xMidYMid meet">
<metadata>
Created by potrace 1.16, written by Peter Selinger 2001-2019
</metadata>
<g transform="translate(0.000000,84.000000) scale(0.100000,-0.100000)"
fill="#000000" stroke="none">
<path d="M457 820 c-31 -9 -57 -28 -57 -40 0 -4 38 -5 85 -2 47 2 85 2 85 -2
0 -19 -111 -459 -123 -488 -13 -31 -20 -36 -63 -42 -44 -6 -84 -28 -84 -47 0
-11 281 2 305 14 19 10 19 10 0 18 -11 4 -39 8 -62 8 -72 2 -75 5 -47 65 13
30 42 144 66 264 l42 212 41 0 c47 0 115 17 115 29 0 18 -250 27 -303 11z"/>
<path d="M1846 769 c-30 -34 -85 -104 -122 -155 l-66 -94 -50 0 c-50 0 -88
-13 -88 -30 0 -6 25 -10 56 -10 l55 0 -26 -42 c-78 -126 -113 -234 -80 -245 6
-2 41 60 78 137 73 152 68 147 148 134 l36 -6 -1 -93 c-1 -102 14 -135 60
-135 31 0 90 53 115 103 29 57 18 55 -20 -3 -31 -48 -67 -70 -90 -55 -35 21
27 357 90 489 14 29 16 43 8 53 -21 25 -48 13 -103 -48z m13 -81 c-15 -46 -36
-109 -44 -140 -9 -32 -22 -58 -28 -58 -19 0 -87 21 -87 26 0 20 166 254 180
254 5 0 -5 -37 -21 -82z"/>
<path d="M2196 788 c-42 -49 -135 -233 -166 -328 -24 -73 -36 -198 -22 -219
15 -22 41 -5 58 36 59 151 101 207 150 201 24 -2 30 -8 32 -34 3 -34 -21 -57
-73 -70 -25 -6 -26 -10 -20 -42 20 -109 83 -136 156 -66 l26 24 11 -25 c28
-60 127 -65 181 -10 14 15 42 37 63 50 l36 23 7 -43 c13 -89 43 -77 90 34 46
111 82 148 113 117 14 -13 14 -23 2 -87 -16 -84 -9 -103 41 -107 24 -2 46 5
72 22 33 23 37 24 37 7 0 -10 8 -25 18 -34 31 -28 68 -21 116 23 l43 40 6 -30
c9 -42 47 -50 103 -20 24 12 50 33 59 47 l16 24 30 -32 c38 -40 69 -34 123 24
22 23 37 35 34 27 -3 -8 -13 -38 -22 -67 -15 -46 -24 -56 -69 -82 -62 -35 -93
-67 -102 -102 -7 -30 15 -59 45 -59 32 0 86 57 121 128 19 37 37 68 41 70 57
26 138 108 138 140 0 8 -13 -3 -29 -24 -30 -43 -91 -98 -98 -90 -3 3 4 33 16
68 11 35 25 82 30 105 8 41 8 43 -14 43 -19 0 -26 -9 -39 -47 -19 -57 -80
-123 -113 -123 -13 0 -23 6 -24 13 -3 32 5 67 26 119 24 60 23 68 -6 68 -19 0
-47 -45 -69 -113 -17 -54 -91 -130 -122 -125 -33 4 -34 37 -4 96 14 27 22 52
19 56 -15 15 -33 2 -74 -51 -75 -101 -127 -137 -142 -99 -15 38 45 169 96 212
56 47 107 39 107 -19 0 -28 24 -15 28 15 4 30 -28 58 -67 58 -64 0 -152 -72
-196 -160 -25 -51 -85 -110 -112 -110 -19 0 -23 5 -23 29 0 16 7 45 15 64 32
76 10 137 -50 137 -44 0 -84 -40 -124 -123 l-30 -62 -1 40 c0 70 18 111 75
169 93 95 157 254 121 301 -14 20 -15 19 -49 -13 -56 -54 -155 -260 -188 -391
-17 -71 -114 -154 -102 -87 3 13 -5 57 -16 98 -12 41 -21 91 -21 111 0 45 -27
52 -35 10 -11 -50 -39 -97 -87 -145 -27 -26 -48 -53 -48 -61 0 -8 -13 -29 -29
-46 -49 -53 -97 -36 -116 41 -6 23 -3 27 23 33 17 3 42 17 56 30 51 48 22 125
-48 125 -44 0 -89 -46 -139 -142 l-38 -73 7 50 c15 108 38 161 96 214 55 50
101 122 112 177 7 32 -7 84 -23 84 -5 0 -26 -19 -45 -42z"/>
<path d="M934 457 l-61 -63 5 43 c4 37 2 43 -15 43 -25 0 -43 -19 -43 -47 0
-12 -11 -57 -25 -100 -30 -94 -30 -89 -5 -96 16 -4 26 7 57 66 41 78 123 172
145 165 22 -8 20 -70 -6 -145 -13 -39 -22 -74 -18 -77 17 -17 41 1 72 55 50
88 92 134 114 126 15 -6 17 -14 12 -45 -18 -96 -18 -118 -1 -135 37 -38 95 -9
146 72 30 46 35 61 21 61 -4 0 -13 -14 -21 -30 -31 -72 -92 -114 -107 -75 -4
8 2 44 11 80 14 51 16 71 7 90 -22 47 -91 26 -137 -43 l-23 -34 5 61 c6 69 -5
91 -45 91 -19 0 -43 -18 -88 -63z"/>
</g>
</svg>
